<svg xmlns="http://www.w3.org/2000/svg" width="139" height="129" viewBox="0 0 139 129" fill="none">
  <rect width="138.24" height="128" transform="translate(0 0.888916)" fill="#111111"/>
  <path d="M9.92255 111.669V18.2897H75.0326V36.6189H32.4923V55.769H71.7043V74.1441H32.4923V93.3396H75.0326V111.669H9.92255Z" fill="#EEEEEE"/>
  <path d="M107.154 48.7932C106.637 46.8783 105.877 45.1912 104.874 43.7321C103.871 42.2427 102.64 40.9813 101.181 39.9477C99.7216 38.9144 98.0496 38.1391 96.165 37.6225C94.2804 37.0752 92.2135 36.8018 89.9643 36.8018C85.4349 36.8018 81.514 37.896 78.2006 40.0846C74.9177 42.2732 72.3796 45.4647 70.5861 49.6596C68.7927 53.8241 67.896 58.8849 67.896 64.8428C67.896 70.8309 68.7624 75.9378 70.495 80.1628C72.2276 84.388 74.7354 87.61 78.0182 89.829C81.3011 92.0479 85.2832 93.1575 89.9643 93.1575C94.0981 93.1575 97.5938 92.4888 100.451 91.1512C103.339 89.7835 105.527 87.8532 107.017 85.3608C108.506 82.8681 109.251 79.9347 109.251 76.5607L113.446 77.0623H90.7393V60.6024H131V72.9587C131 81.3178 129.222 88.4764 125.665 94.4343C122.139 100.392 117.276 104.967 111.075 108.158C104.904 111.35 97.8067 112.946 89.7819 112.946C80.8756 112.946 73.0483 111.016 66.3003 107.155C59.552 103.295 54.2934 97.7932 50.5242 90.6497C46.755 83.4762 44.8704 74.965 44.8704 65.1163C44.8704 57.4564 46.0103 50.6627 48.2901 44.7354C50.5699 38.7775 53.7462 33.7315 57.8194 29.5977C61.923 25.4636 66.6649 22.3328 72.0452 20.205C77.4559 18.0772 83.2769 17.0133 89.5082 17.0133C94.9188 17.0133 99.9496 17.7884 104.6 19.3387C109.281 20.8889 113.415 23.0775 117.002 25.9044C120.619 28.7313 123.553 32.0901 125.802 35.9811C128.052 39.8717 129.45 44.1424 129.997 48.7932H107.154Z" fill="#EEEEEE"/>
  <path d="M77.3251 8.95184H43.9421V119.373H77.3251V8.95184Z" fill="#111111"/>
  <path d="M7.35461 111.669V18.2897H72.4646V36.6189H29.9243V55.769H69.1363V74.1441H29.9243V93.3396H72.4646V111.669H7.35461Z" fill="#EEEEEE"/>
  <path d="M77.3252 11.5198H61.9176V116.805H77.3252V11.5198Z" fill="#111111"/>
</svg>