<svg xmlns="http://www.w3.org/2000/svg" width="204" height="189" viewBox="0 0 204 189" fill="none">
  <rect width="204" height="188.889" fill="#111111"/>
  <path d="M14.1747 162.444V25.0707H109.961V52.0355H47.3779V80.2079H105.064V107.24H47.3779V135.479H109.961V162.444H14.1747Z" fill="#EEEEEE"/>
  <path d="M157.215 69.9451C156.455 67.1281 155.337 64.6461 153.861 62.4995C152.386 60.3084 150.575 58.4528 148.428 56.9322C146.282 55.412 143.822 54.2715 141.049 53.5114C138.277 52.7064 135.236 52.3041 131.927 52.3041C125.264 52.3041 119.496 53.9138 114.621 57.1336C109.792 60.3534 106.058 65.0484 103.419 71.2198C100.781 77.3462 99.4617 84.7914 99.4617 93.5563C99.4617 102.366 100.736 109.879 103.285 116.094C105.834 122.31 109.523 127.05 114.353 130.314C119.182 133.579 125.041 135.211 131.927 135.211C138.009 135.211 143.151 134.227 147.355 132.26C151.603 130.248 154.823 127.408 157.014 123.741C159.205 120.074 160.3 115.759 160.3 110.795L166.472 111.533H133.067V87.318H192.296V105.496C192.296 117.793 189.68 128.325 184.448 137.089C179.261 145.854 172.106 152.584 162.984 157.279C153.906 161.975 143.464 164.323 131.659 164.323C118.556 164.323 107.041 161.483 97.1141 155.804C87.1865 150.125 79.4504 142.031 73.9054 131.522C68.3603 120.969 65.5878 108.448 65.5878 93.9586C65.5878 82.6899 67.2648 72.6954 70.6187 63.9755C73.9726 55.2107 78.6453 47.7873 84.6377 41.7059C90.6745 35.6241 97.6506 31.0182 105.566 27.8879C113.526 24.7576 122.089 23.1925 131.256 23.1925C139.216 23.1925 146.617 24.3328 153.459 26.6134C160.345 28.8941 166.427 32.1138 171.704 36.2725C177.025 40.4313 181.34 45.3726 184.649 51.0967C187.959 56.8204 190.016 63.1032 190.821 69.9451H157.215Z" fill="#EEEEEE"/>
  <path d="M113.333 11.3333H64.2222V173.778H113.333V11.3333Z" fill="#111111"/>
  <path d="M10.397 162.444V25.0707H106.183V52.0355H43.6001V80.2079H101.286V107.24H43.6001V135.479H106.183V162.444H10.397Z" fill="#EEEEEE"/>
  <path d="M113.333 15.1111H90.6667V170H113.333V15.1111Z" fill="#111111"/>
</svg>